<svg id="图层_1" data-name="图层 1" xmlns="http://www.w3.org/2000/svg" viewBox="0 0 117.74 28"><defs><style>.cls-1{fill:#565656;}</style></defs><g id="图层_2" data-name="图层 2"><g id="图层_1-2" data-name="图层 1-2"><path class="cls-1" d="M6.9,6.77,8.55,4.84l-.64-.66H16L13.82,6.77H30.08L27.5,23.36H3.18L5.77,6.77ZM22.41,18.7H9.73l-.31,2.06H22.15ZM10.1,16.09H22.82L23.16,14H10.43Zm.72-4.66H23.57l.33-2.06H11.17Z"/><path class="cls-1" d="M31.7,21.31,34.14,5.82l-.83-.9H45.4L43,20.3h.67l-.4,2.47L31,23.82l.36-2.44Zm4.47-.41,2.36-.19.46-2.9H36.66Zm.89-5.62h2.32l.39-2.64H37.55Zm.83-5.21h2.27l.43-2.62H38.32Zm9.2-.19H45.81l.43-2.59h1.63l.49-2.18-.91-.93h5.69l-.87,3.11h6.06L56,22a2,2,0,0,1-.82,1.27,2.61,2.61,0,0,1-1.55.5H48.51l2.68-2.48L53,9.86H51.62l-3.72,14H43.37Z"/><path class="cls-1" d="M59.61,23.82,65,15.34H62.09l.43-2.62H83.37L81.91,22a1.93,1.93,0,0,1-.82,1.27,2.56,2.56,0,0,1-1.64.53h-5.9l2.73-2.54.92-5.94H70.75l-5.38,8.48ZM66.15,12H60.34L66.76,4.8l-.58-.62h7ZM81.24,4.18,85.8,12H80.09L75.45,4.18Z"/><path class="cls-1" d="M86.9,22.84,89.34,10.6h1.91L88.82,22.84ZM91.81,10h-3l.39-2.51h3L92.53,5l-.67-.85h5.51L96.9,7.45h2.91L99.42,10h-3L94.3,23.82H89.58Zm3.93,11.32L96.93,10.6h1.92l-1.2,10.68Zm5.45-15.46,13.37-1.64-.43,2.73-8,.79-.7,3.44H114l-.43,2.58h-1.77l-1.63,10.07h-4.73l1.63-10.07H104.9L103,23.82H97.57Z"/></g></g></svg>