<svg id="图层_1" data-name="图层 1" xmlns="http://www.w3.org/2000/svg" viewBox="0 0 68.06 28"><defs><style>.cls-1{fill:#565656;}</style></defs><g id="图层_2" data-name="图层 2"><g id="图层_1-2" data-name="图层 1-2"><path class="cls-1" d="M9.18,10.54,10,9.62l-.3-.31h3.87l-1,1.23h7.78L19,18.47H7.41l1.23-7.93Zm7.42,5.71H10.54l-.15,1h6.08ZM10.72,15h6.07L17,14H10.87Zm.34-2.23h6.09l.16-1H11.22Z"/><path class="cls-1" d="M21,17.5l1.17-7.41-.4-.43h5.78L26.44,17h.32l-.19,1.18-5.86.5.17-1.16Zm2.14-.2,1.13-.09.21-1.39H23.41Zm.42-2.69h1.11l.19-1.26H23.84Zm.4-2.49h1.09l.2-1.25H24.2ZM28.4,12h-.61l.2-1.24h.78l.24-1-.44-.44h2.72l-.41,1.48h2.89l-1.1,7a1,1,0,0,1-.39.61,1.26,1.26,0,0,1-.75.24H29.08l1.28-1.18L31.22,12h-.66l-1.77,6.67H26.62Z"/><path class="cls-1" d="M34.38,18.69,37,14.64H35.57l.2-1.25h10l-.69,4.44a1,1,0,0,1-.4.61,1.21,1.21,0,0,1-.78.25H41.05l1.3-1.21.44-2.84H39.71l-2.57,4.05ZM37.51,13H34.73L37.8,9.6l-.27-.29h3.32Zm7.21-3.71L46.91,13H44.18L42,9.31Z"/><path class="cls-1" d="M47.43,18.22l1.17-5.85h.91l-1.16,5.85Zm2.35-6.15H48.35l.19-1.2H50l.17-1.16-.32-.4h2.64l-.23,1.56H53.6l-.18,1.24H52l-1,6.58H48.72Zm1.88,5.41.57-5.11h.91l-.57,5.11Zm2.6-7.39,6.39-.78-.2,1.3L56.62,11l-.33,1.64H60.4l-.21,1.24h-.84l-.78,4.81H56.3l.79-4.81H56l-.91,4.82h-2.6Z"/></g></g></svg>