<svg xmlns="http://www.w3.org/2000/svg" viewBox="0 0 147.47 26"><defs><style>.cls-1{fill:#565656;}</style></defs><g id="图层_2" data-name="图层 2"><g id="图层_1-2" data-name="图层 1"><path class="cls-1" d="M4.92,3.43,7.1.87,6.25,0H17l-2.9,3.43H35.62l-3.43,22H0l3.43-22ZM25.45,19.21H8.59L8.19,22H25.05ZM9.16,15.78H26L26.46,13H9.6Zm1-6.17H27l.44-2.75H10.57Z"/><path class="cls-1" d="M37.76,22.68,41,2.13,39.89,1h16L52.72,21.34l.89-.07-.53,3.29L36.75,25.93l.48-3.22Zm5.93-.54,3.1-.26.61-3.82H44.33Zm1.17-7.44h3.06l.53-3.51h-3ZM46,7.8h3l.56-3.47h-3Zm12.18-.25h-1.7L57,4.12h2l.77-2.89L58.61,0h7.54L65.07,4.12h8L70,23.62a2.67,2.67,0,0,1-1.09,1.69,3.35,3.35,0,0,1-2.06.65H60l3.55-3.28L66,7.55H64.14L59.22,26h-6Z"/><path class="cls-1" d="M74.7,26l7.1-11.23H78l.57-3.47h27.59l-1.94,12.32a2.57,2.57,0,0,1-1.07,1.69,3.31,3.31,0,0,1-2.07.69h-8l3.63-3.36,1.21-7.87H89.47L82.37,26Zm8.64-15.71H75.67L84.18.83,83.42,0h9.2ZM103.34,0l6.06,10.29h-7.67L95.68,0Z"/><path class="cls-1" d="M110.85,24.7l3.22-16.21h2.55L113.39,24.7Zm6.41-17h-3.87l.52-3.44h3.91l.49-3.1-.89-1h7.3l-.64,4.15H128l-.52,3.44h-3.92L120.65,26H114.4Zm5.2,15L124,8.49h2.54L125,22.64Zm7.31-20.58L147.47,0l-.56,3.61L136.3,4.66l-.93,4.55h11.38l-.57,3.43h-2.34L141.75,26h-6.34l2.1-13.32h-2.82L132.06,26H125Z"/></g></g></svg>