<svg id="图层_1" data-name="图层 1" xmlns="http://www.w3.org/2000/svg" viewBox="0 0 68.06 16"><defs><style>.cls-1{fill:#565656;}</style></defs><g id="图层_2" data-name="图层 2"><g id="图层_1-2" data-name="图层 1-2"><path class="cls-1" d="M19.1,5.92l.47-.55-.18-.19h2.33l-.63.74h4.67L25,10.69H18l.74-4.77Zm4.45,3.43H19.91l-.09.59h3.66ZM20,8.6h3.65l.1-.6H20.11Zm.21-1.34h3.66L24,6.67H20.32Z"/><path class="cls-1" d="M26.23,10.1l.7-4.45-.24-.26h3.47l-.69,4.42h.19l-.11.71-3.53.3.11-.7ZM27.51,10l.68-.05.13-.83h-.67Zm.25-1.61h.67l.11-.76H27.9ZM28,6.87h.66l.12-.75h-.66Zm2.64-.06h-.36l.12-.74h.47L31,5.45l-.26-.27h1.63l-.24.89h1.73l-.66,4.23a.61.61,0,0,1-.23.37.8.8,0,0,1-.45.14H31.05l.77-.71.52-3.29H32l-1.07,4h-1.3Z"/><path class="cls-1" d="M34.24,10.82l1.54-2.43H35l.12-.76h6l-.42,2.67a.58.58,0,0,1-.24.37.72.72,0,0,1-.47.15H38.25l.78-.73.27-1.7H37.44L35.9,10.82Zm1.88-3.41H34.45l1.85-2-.17-.18h2Zm4.34-2.23,1.31,2.23H40.13L38.79,5.18Z"/><path class="cls-1" d="M42.08,10.54,42.78,7h.55l-.7,3.52Zm1.41-3.7h-.86l.12-.72h.85l.1-.7-.19-.24h1.58L45,6.12h.83l-.11.74h-.85l-.62,4H42.86Zm1.13,3.25L45,7h.55l-.35,3.07Zm1.57-4.44L50,5.18,49.91,6l-2.3.23-.2,1h2.46l-.12.74h-.51l-.47,2.89H47.42l.47-2.89h-.63l-.55,2.9H45.15Z"/></g></g></svg>