<svg xmlns="http://www.w3.org/2000/svg" viewBox="0 0 102.1 18"><defs><style>.cls-1{fill:#565656;}</style></defs><g id="图层_2" data-name="图层 2"><g id="图层_1-2" data-name="图层 1"><path class="cls-1" d="M3.41,2.37,4.92.6,4.33,0h7.43l-2,2.37H24.66L22.29,17.58H0L2.37,2.37ZM17.62,13.3H6l-.28,1.9H17.34ZM6.34,10.92H18L18.32,9H6.65ZM7,6.65H18.68L19,4.75H7.32Z"/><path class="cls-1" d="M26.14,15.7,28.37,1.47l-.75-.8H38.71L36.5,14.78l.61-.06L36.75,17,25.44,18l.34-2.23Zm4.1-.38,2.15-.17.42-2.65H30.69Zm.81-5.15h2.13l.36-2.42H31.45Zm.76-4.77H33.9L34.29,3H32.2Zm8.43-.17H39.07l.39-2.38h1.42l.53-2L40.58,0H45.8l-.75,2.83H50.6l-2.12,13.5a1.82,1.82,0,0,1-.75,1.17A2.36,2.36,0,0,1,46.3,18H41.55L44,15.7,45.66,5.23H44.4L41,18H36.83Z"/><path class="cls-1" d="M51.72,18l4.91-7.77H54l.39-2.41H73.5l-1.34,8.53a1.75,1.75,0,0,1-.74,1.17A2.31,2.31,0,0,1,70,18H64.45L67,15.68l.83-5.45H61.94L57,18Zm6-10.87H52.39L58.28.57,57.75,0h6.37ZM71.55,0l4.19,7.13H70.43L66.24,0Z"/><path class="cls-1" d="M76.74,17.1,79,5.87h1.76L78.5,17.1ZM81.18,5.3H78.5l.36-2.38h2.71L81.91.77,81.29.05h5.06L85.9,2.92h2.68L88.22,5.3H85.51l-2,12.7H79.2Zm3.6,10.38,1.09-9.81h1.76l-1.09,9.81ZM89.84,1.42,102.1,0l-.39,2.5-7.35.72-.64,3.16h7.87l-.39,2.37H99.58L98.13,18H93.75L95.2,8.75h-2L91.43,18H86.51Z"/></g></g></svg>