<svg width="130" height="44" viewBox="0 0 130 44" fill="none" xmlns="http://www.w3.org/2000/svg">
<g clip-path="url(#clip0_1_15197)">
<path d="M26.27 17.58L27.28 16.4L26.89 16H31.84L30.5 17.58H40.44L38.86 27.72H24L25.58 17.58H26.27ZM35.75 24.87H28L27.81 26.13H35.59L35.75 24.87ZM28.23 23.28H36L36.21 22H28.43L28.23 23.28ZM28.67 20.43H36.46L36.66 19.17H28.88L28.67 20.43Z" fill="#565656"/>
<path d="M41.43 26.47L42.92 17L42.41 16.45H49.8L48.33 25.85H48.74L48.5 27.36L41 28L41.22 26.51L41.43 26.47ZM44.16 26.22L45.6 26.1L45.88 24.33H44.46L44.16 26.22ZM44.7 22.78H46.12L46.36 21.17H45L44.7 22.78ZM45.21 19.6H46.6L46.86 18H45.47L45.21 19.6ZM50.83 19.48H50.05L50.31 17.9H51.31L51.61 16.57L51.05 16H54.53L54 17.9H57.7L56.29 26.9C56.2314 27.2152 56.052 27.4951 55.79 27.68C55.514 27.8798 55.1807 27.9851 54.84 27.98H51.7L53.34 26.47L54.44 19.47H53.6L51.33 28H48.56L50.83 19.48Z" fill="#565656"/>
<path d="M58.48 28L61.76 22.82H60L60.26 21.22H73L72.11 26.9C72.0825 27.0567 72.0241 27.2063 71.9383 27.3402C71.8525 27.4741 71.7409 27.5896 71.61 27.68C71.3237 27.899 70.9703 28.0121 70.61 28H67L68.67 26.45L69.23 22.82H65.29L62 28H58.48ZM62.48 20.75H58.93L62.85 16.38L62.5 16H66.75L62.48 20.75ZM71.7 16L74.49 20.75H71L68.16 16H71.7Z" fill="#565656"/>
<path d="M75.16 27.4L76.65 19.92H77.82L76.33 27.4H75.16ZM78.16 19.53H76.33L76.57 18H78.38L78.6 16.52L78.19 16H81.56L81.27 18H83.05L82.81 19.58H81L79.68 28H76.8L78.16 19.53ZM80.56 26.45L81.29 19.92H82.46L81.73 26.45H80.56ZM83.89 17L92.06 16L91.8 17.67L86.91 18.15L86.48 20.25H91.73L91.47 21.83H90.39L89.39 27.98H86.5L87.5 21.83H86.16L85 28H81.68L83.89 17Z" fill="#565656"/>
</g>
<defs>
<clipPath id="clip0_1_15197">
<rect width="68.06" height="12" fill="white" transform="translate(24 16)"/>
</clipPath>
</defs>
</svg>
